<svg id="Icons" height="512" viewBox="0 0 60 60" width="512" xmlns="http://www.w3.org/2000/svg"><path d="m23.12 52.53a20.718 20.718 0 0 1 -2.83 5.65 2.027 2.027 0 0 1 -1.62.82h-11.34a2.027 2.027 0 0 1 -1.62-.82c-2.86-3.84-4.71-10.63-4.71-17.18a29.773 29.773 0 0 1 .82-7h15.38a22.787 22.787 0 0 0 -.2 3 22.494 22.494 0 0 0 6.12 15.53z" fill="#f5f5f5"/><path d="m17 37a22.787 22.787 0 0 1 .2-3h-3a22.787 22.787 0 0 0 -.2 3 22.494 22.494 0 0 0 6.12 15.53 20.718 20.718 0 0 1 -2.83 5.65 2.027 2.027 0 0 1 -1.62.82h3a2.027 2.027 0 0 0 1.62-.82 20.718 20.718 0 0 0 2.83-5.65 22.494 22.494 0 0 1 -6.12-15.53z" fill="#cfd8dc"/><path d="m18.09 30a21.111 21.111 0 0 0 -.89 4h-15.38a27.446 27.446 0 0 1 1.25-4z" fill="#f44335"/><path d="m15.09 30a21.111 21.111 0 0 0 -.89 4h3a21.111 21.111 0 0 1 .89-4z" fill="#c81e1e"/><path d="m19.81 26a21.538 21.538 0 0 0 -1.72 4h-15.02a26.976 26.976 0 0 1 1.95-4z" fill="#f5f5f5"/><path d="m16.81 26a21.538 21.538 0 0 0 -1.72 4h3a21.538 21.538 0 0 1 1.72-4z" fill="#cfd8dc"/><path d="m20.39 25.03c-.21.32-.4.64-.58.97h-14.79a24.483 24.483 0 0 1 2.91-4h10.14a24.182 24.182 0 0 1 2.32 3.03z" fill="#f44335"/><path d="m18.07 22h-3a24.182 24.182 0 0 1 2.32 3.03c-.21.32-.4.64-.58.97h3c.18-.33.37-.65.58-.97a24.182 24.182 0 0 0 -2.32-3.03z" fill="#c81e1e"/><path d="m17.43 21.31c.22.22.43.45.64.69h-10.14c.19-.22.38-.43.58-.63a3.029 3.029 0 0 0 .35-3.89 16.369 16.369 0 0 1 -2.86-9.48 7 7 0 0 1 7.52-6.98 7.22 7.22 0 0 1 6.47 7.54 16.34 16.34 0 0 1 -2.81 8.88 2.966 2.966 0 0 0 .25 3.87z" fill="#f5f5f5"/><path d="m17.18 17.44a16.34 16.34 0 0 0 2.81-8.88 7.22 7.22 0 0 0 -6.47-7.54 7.061 7.061 0 0 0 -2.034.151 7.291 7.291 0 0 1 5.5 7.389 16.34 16.34 0 0 1 -2.81 8.88 2.966 2.966 0 0 0 .25 3.87c.22.22.43.45.64.69h3c-.21-.24-.42-.47-.64-.69a2.966 2.966 0 0 1 -.246-3.87z" fill="#cfd8dc"/><path d="m59 37c0 12.15-9.4 22-21 22a20.47 20.47 0 0 1 -14.88-6.47 22.494 22.494 0 0 1 -6.12-15.53 22.787 22.787 0 0 1 .2-3 21.111 21.111 0 0 1 .89-4 21.538 21.538 0 0 1 1.72-4c.18-.33.37-.65.58-.97a20.715 20.715 0 0 1 17.61-10.03c11.6 0 21 9.85 21 22z" fill="#607d8b"/><g fill="#37474f"><path d="m38 15c-.51 0-1.016.023-1.517.061 10.907.798 19.517 10.312 19.517 21.939s-8.6 21.132-19.5 21.938c.5.037.995.062 1.5.062 11.6 0 21-9.85 21-22s-9.4-22-21-22z"/><circle cx="31" cy="24" r="3"/><circle cx="27" cy="34" r="2"/><circle cx="42" cy="25" r="2"/></g><path d="m38 14a21.684 21.684 0 0 0 -17.627 9.252 23.983 23.983 0 0 0 -2.226-2.639 1.98 1.98 0 0 1 -.165-2.576 17.333 17.333 0 0 0 3.007-9.445 8.261 8.261 0 0 0 -7.4-8.57 7.928 7.928 0 0 0 -6.034 2.116 8.028 8.028 0 0 0 -2.555 5.862 17.48 17.48 0 0 0 3.059 10.078 2.043 2.043 0 0 1 -.27 2.6c-.187.194-.363.4-.544.6-.018.017-.032.036-.049.055a25.78 25.78 0 0 0 -3.036 4.155 28.382 28.382 0 0 0 -2.01 4.12l-.007.018a28.252 28.252 0 0 0 -1.294 4.139 30.716 30.716 0 0 0 -.849 7.235c0 6.8 1.927 13.774 4.908 17.778a3.039 3.039 0 0 0 2.422 1.222h11.34a3.036 3.036 0 0 0 2.421-1.222 19.876 19.876 0 0 0 2.432-4.478 21.367 21.367 0 0 0 14.477 5.7c12.131 0 22-10.318 22-23s-9.869-23-22-23zm-34.224 17h12.988q-.253.983-.424 2h-13.214q.282-1 .65-2zm13.6-2h-12.776q.471-1.032 1.016-2h12.575q-.451.975-.816 2zm-8.993-6h9.237a23.474 23.474 0 0 1 1.539 2h-12.31a23.617 23.617 0 0 1 1.534-2zm-1.383-15a6 6 0 0 1 6.446-5.983 6.244 6.244 0 0 1 5.545 6.51 15.281 15.281 0 0 1 -2.612 8.314 3.955 3.955 0 0 0 -.367 4.159h-6.041a3.924 3.924 0 0 0 -.313-4.124 15.4 15.4 0 0 1 -2.658-8.876zm12.488 49.583a1.03 1.03 0 0 1 -.818.417h-11.34a1.03 1.03 0 0 1 -.818-.417c-2.741-3.683-4.512-10.189-4.512-16.583a28.959 28.959 0 0 1 .632-6h13.456c-.054.66-.088 1.326-.088 2a23.477 23.477 0 0 0 5.975 15.734 19.282 19.282 0 0 1 -2.487 4.849zm18.512.417c-11.028 0-20-9.42-20-21s8.972-21 20-21 20 9.42 20 21-8.972 21-20 21z"/><path d="m49.084 49.248a15.439 15.439 0 0 1 -11.084 4.752 1 1 0 0 0 0 2 17.422 17.422 0 0 0 12.514-5.354 1 1 0 1 0 -1.43-1.4z" fill="#f5f5f5"/><path d="m53.235 45.045a1 1 0 0 0 1.3-.547 19.714 19.714 0 0 0 1.465-7.498 1 1 0 0 0 -2 0 17.727 17.727 0 0 1 -1.312 6.741 1 1 0 0 0 .547 1.304z" fill="#f5f5f5"/><path d="m31 20a4 4 0 1 0 4 4 4 4 0 0 0 -4-4zm0 6a2 2 0 1 1 2-2 2 2 0 0 1 -2 2z"/><path d="m27 31a3 3 0 1 0 3 3 3 3 0 0 0 -3-3zm0 4a1 1 0 1 1 1-1 1 1 0 0 1 -1 1z"/><path d="m42 28a3 3 0 1 0 -3-3 3 3 0 0 0 3 3zm0-4a1 1 0 1 1 -1 1 1 1 0 0 1 1-1z"/></svg>