<?xml version="1.0" encoding="UTF-8"?>
<svg id="Capa_2" data-name="Capa 2" xmlns="http://www.w3.org/2000/svg" viewBox="0 0 156.67 59.69">
  <defs>
    <style>
      .cls-1, .cls-2 {
        fill-rule: evenodd;
        stroke: #000;
        stroke-miterlimit: 10;
        stroke-width: .25px;
      }

      .cls-3 {
        fill: #dce7eb;
      }

      .cls-4, .cls-5 {
        font-family: Poppins-Bold, Poppins;
        font-size: 34.94px;
        font-weight: 700;
      }

      .cls-5 {
        letter-spacing: -.04em;
      }

      .cls-2 {
        fill: #999;
      }

      .cls-6 {
        fill: #ff0048;
      }
    </style>
  </defs>
  <g id="Capa_1-2" data-name="Capa 1">
    <text class="cls-4" transform="translate(0 29.79)"><tspan x="0" y="0">La</tspan></text>
    <text class="cls-4" transform="translate(47.87 29.79)"><tspan x="0" y="0">B</tspan></text>
    <g id="Layer_1">
      <path class="cls-1" d="M84.4,16.66c.85-.19,1.7.36,1.9,1.25s-.36,1.7-1.21,1.89-1.74-.35-1.93-1.21.35-1.74,1.25-1.94ZM73.46,20.75c.27-.06.51.09.57.36.82,3.77,4.6,6.19,8.37,5.38.62-.14.82.8.2.93-4.31.94-8.56-1.8-9.5-6.1-.06-.27.13-.52.36-.57ZM78.74,9.68c5.47-1.19,10.91,2.3,12.1,7.77,1.19,5.47-2.3,10.91-7.77,12.1s-10.91-2.3-12.1-7.77c-1.19-5.47,2.3-10.91,7.77-12.1ZM82.86,28.62c4.97-1.08,8.13-6,7.05-10.96-1.08-4.97-6-8.13-10.96-7.05s-8.13,6-7.05,10.96,6,8.13,10.96,7.05ZM82.81,12.53c.85-.19,1.7.36,1.89,1.21s-.35,1.74-1.21,1.93-1.74-.35-1.94-1.25.4-1.71,1.25-1.9ZM83.3,14.74c.85-.19.58-1.47-.28-1.28s-.58,1.47.28,1.28ZM79.77,16.12c.89-.19,1.74.35,1.93,1.21s-.35,1.74-1.25,1.94-1.7-.36-1.9-1.25.36-1.7,1.21-1.89ZM80.26,18.33c.85-.19.58-1.47-.28-1.28s-.54,1.46.28,1.28ZM84.89,18.87c.82-.18.54-1.46-.28-1.28s-.58,1.47.28,1.28Z"/>
      <path class="cls-2" d="M85.09,19.8c-.89.19-1.74-.35-1.93-1.21s.35-1.74,1.25-1.94,1.7.36,1.9,1.25-.36,1.7-1.21,1.89ZM73.46,20.75c.27-.06.51.09.57.36.82,3.77,4.6,6.19,8.37,5.38.62-.14.82.8.2.93-4.31.94-8.56-1.8-9.5-6.1-.06-.27.13-.52.36-.57ZM83.5,15.68c-.85.19-1.74-.35-1.94-1.25s.4-1.71,1.25-1.9,1.7.36,1.89,1.21-.35,1.74-1.21,1.93ZM81.7,17.33c.19.89-.35,1.74-1.25,1.94s-1.7-.36-1.9-1.25.36-1.7,1.21-1.89,1.74.35,1.93,1.21ZM89.91,17.66c-1.08-4.97-6-8.13-10.96-7.05s-8.13,6-7.05,10.96,6,8.13,10.96,7.05c4.97-1.08,8.13-6,7.05-10.96Z"/>
    </g>
    <text class="cls-5" transform="translate(90.35 29.9)"><tspan x="0" y="0">lera</tspan></text>
    <g>
      <path d="M71.98,59.41h-5.98l-9.99-15.13v15.13h-5.97v-24.53h5.97l9.99,15.2v-15.2h5.98v24.53Z"/>
      <path d="M95.81,51.1h-13.52c.09,1.21.48,2.14,1.17,2.78.69.64,1.53.96,2.53.96,1.49,0,2.53-.63,3.11-1.89h6.36c-.33,1.28-.92,2.43-1.76,3.46-.85,1.03-1.92,1.83-3.2,2.41-1.28.58-2.71.87-4.3.87-1.91,0-3.61-.41-5.1-1.22-1.49-.81-2.66-1.98-3.49-3.49-.84-1.51-1.26-3.28-1.26-5.31s.41-3.8,1.24-5.31c.83-1.51,1.99-2.68,3.48-3.49,1.49-.82,3.2-1.22,5.14-1.22s3.56.4,5.03,1.19c1.47.79,2.62,1.92,3.44,3.39.83,1.47,1.24,3.18,1.24,5.14,0,.56-.04,1.14-.11,1.75ZM89.8,47.78c0-1.02-.35-1.84-1.05-2.45-.7-.61-1.57-.91-2.62-.91s-1.85.29-2.53.87c-.69.58-1.11,1.41-1.28,2.48h7.48Z"/>
    </g>
    <g>
      <path class="cls-3" d="M106.61,43.52c-.38-.39-.56-.93-.5-1.47.33-2.82.52-5.5.52-6.05,0-1.23-1-2.23-2.23-2.23s-2.23,1-2.23,2.23c0,.55.2,3.24.53,6.06.06.54-.12,1.07-.49,1.46-4.57,4.69-1.45,13.46-.73,15.3.08.21.28.34.5.34h4.87c.22,0,.42-.13.5-.34.72-1.83,3.82-10.6-.74-15.29h0Z"/>
      <path class="cls-3" d="M106.61,43.52c-.38-.39-.56-.93-.5-1.47.33-2.82.52-5.5.52-6.05,0-1.23-1-2.23-2.23-2.23s-2.23,1-2.23,2.23c0,.55.2,3.24.53,6.06.06.54-.12,1.07-.49,1.46-4.57,4.69-1.45,13.46-.73,15.3.08.21.28.34.5.34h4.87c.22,0,.42-.13.5-.34.72-1.83,3.82-10.6-.74-15.29h0Z"/>
      <path d="M102.5,56.71c-.43-1.37-.77-2.78-.95-4.2-.2-1.64-.22-3.35.23-4.95.25-.88.64-1.72,1.22-2.44.08-.1.1-.24,0-.34-.08-.08-.26-.1-.34,0-1.09,1.36-1.57,3.05-1.69,4.77-.12,1.68.1,3.38.46,5.02.17.76.37,1.52.61,2.27.09.29.55.17.46-.13h0Z"/>
      <path class="cls-6" d="M106.29,40.39c.07-.68.13-1.33.18-1.91h-4.14c.05.58.11,1.23.18,1.91h3.78Z"/>
      <path class="cls-6" d="M106.61,43.52c-.38-.39-.56-.93-.5-1.47.01-.12.03-.25.04-.37h-3.5c.01.12.03.25.04.37.06.54-.12,1.07-.49,1.46-.02.03-.05.05-.07.08h4.55s-.04-.05-.07-.07h0Z"/>
      <path d="M102.61,58.08c.31,0,.31-.48,0-.48-.31,0-.31.48,0,.48Z"/>
      <path d="M106.77,43.35c-.23-.25-.39-.56-.43-.9-.05-.4.05-.82.09-1.21.09-.81.17-1.62.24-2.43.06-.63.11-1.25.15-1.88.02-.36.07-.74.04-1.1-.1-1.26-1.15-2.27-2.42-2.29-1.27-.03-2.36.96-2.5,2.21-.04.37,0,.75.03,1.12.04.62.09,1.23.14,1.85.07.81.15,1.61.24,2.42.04.41.14.83.11,1.24-.02.35-.16.69-.4.94-.4.43-.77.87-1.08,1.37-.3.48-.55.99-.75,1.52-.4,1.05-.6,2.16-.68,3.28-.14,2.11.17,4.24.69,6.28.19.76.42,1.51.67,2.24.09.25.17.49.27.73.08.2.16.39.35.52.15.11.32.14.5.14,1.25,0,2.51,0,3.76,0,.33,0,.66,0,.99,0,.19,0,.37-.04.52-.16.17-.13.25-.31.32-.51.22-.57.42-1.16.6-1.75.57-1.89.97-3.86,1.04-5.84.09-2.22-.25-4.55-1.45-6.46-.3-.48-.65-.93-1.05-1.33-.21-.22-.55.12-.34.34,1.53,1.58,2.21,3.73,2.34,5.89.12,2.04-.17,4.08-.67,6.05-.19.73-.4,1.46-.65,2.18-.09.25-.17.49-.27.74-.05.13-.08.26-.2.33-.09.05-.18.04-.27.04h-3.7c-.33,0-.65,0-.98,0-.29,0-.35-.21-.44-.44-.22-.58-.42-1.18-.6-1.77-.55-1.85-.93-3.77-.99-5.7-.07-2.14.27-4.36,1.45-6.18.14-.22.3-.44.47-.64.19-.23.41-.44.6-.68.22-.29.36-.62.4-.98.05-.38-.03-.77-.07-1.15-.16-1.43-.29-2.86-.39-4.3-.02-.35-.05-.71-.06-1.06,0-.55.22-1.07.61-1.45.84-.81,2.22-.71,2.95.2.31.39.44.87.43,1.36-.01.41-.04.82-.07,1.23-.11,1.47-.25,2.93-.41,4.39-.04.37-.07.71.03,1.07.09.33.27.63.5.88.21.22.55-.11.34-.34h0Z"/>
      <path d="M106.77,43.35c-.23-.25-.39-.56-.43-.9-.05-.4.05-.82.09-1.21.09-.81.17-1.62.24-2.43.06-.63.11-1.25.15-1.88.02-.36.07-.74.04-1.1-.1-1.26-1.15-2.27-2.42-2.29-1.27-.03-2.36.96-2.5,2.21-.04.37,0,.75.03,1.12.04.62.09,1.23.14,1.85.07.81.15,1.61.24,2.42.04.41.14.83.11,1.24-.02.35-.16.69-.4.94-.4.43-.77.87-1.08,1.37-.3.48-.55.99-.75,1.52-.4,1.05-.6,2.16-.68,3.28-.14,2.11.17,4.24.69,6.28.19.76.42,1.51.67,2.24.09.25.17.49.27.73.08.2.16.39.35.52.15.11.32.14.5.14,1.25,0,2.51,0,3.76,0,.33,0,.66,0,.99,0,.19,0,.37-.04.52-.16.17-.13.25-.31.32-.51.22-.57.42-1.16.6-1.75.57-1.89.97-3.86,1.04-5.84.09-2.22-.25-4.55-1.45-6.46-.3-.48-.65-.93-1.05-1.33-.21-.22-.55.12-.34.34,1.53,1.58,2.21,3.73,2.34,5.89.12,2.04-.17,4.08-.67,6.05-.19.73-.4,1.46-.65,2.18-.09.25-.17.49-.27.74-.05.13-.08.26-.2.33-.09.05-.18.04-.27.04h-3.7c-.33,0-.65,0-.98,0-.29,0-.35-.21-.44-.44-.22-.58-.42-1.18-.6-1.77-.55-1.85-.93-3.77-.99-5.7-.07-2.14.27-4.36,1.45-6.18.14-.22.3-.44.47-.64.19-.23.41-.44.6-.68.22-.29.36-.62.4-.98.05-.38-.03-.77-.07-1.15-.16-1.43-.29-2.86-.39-4.3-.02-.35-.05-.71-.06-1.06,0-.55.22-1.07.61-1.45.84-.81,2.22-.71,2.95.2.31.39.44.87.43,1.36-.01.41-.04.82-.07,1.23-.11,1.47-.25,2.93-.41,4.39-.04.37-.07.71.03,1.07.09.33.27.63.5.88.21.22.55-.11.34-.34h0Z"/>
      <path d="M106.53,40.39c.06-.64.12-1.27.18-1.91.01-.13-.12-.24-.24-.24h-4.14c-.12,0-.25.11-.24.24.05.64.11,1.27.18,1.91.01.13.1.24.24.24h3.78c.31,0,.31-.48,0-.48h-3.78c.08.08.16.16.24.24-.06-.64-.12-1.27-.18-1.91-.08.08-.16.16-.24.24h4.14c-.08-.08-.16-.16-.24-.24-.05.64-.11,1.27-.18,1.91-.01.13.12.24.24.24.14,0,.22-.11.24-.24h0Z"/>
      <path d="M106.77,43.35c-.2-.21-.34-.46-.4-.74-.07-.31-.02-.62.01-.93.01-.13-.12-.24-.24-.24h-3.5c-.12,0-.25.11-.24.24.04.33.09.65,0,.97-.08.31-.25.54-.46.77-.14.15-.04.41.17.41h4.55c.21,0,.31-.26.17-.41-.02-.02-.04-.05-.07-.07-.21-.22-.55.11-.34.34.02.02.05.05.07.07.06-.14.11-.27.17-.41h-4.55c.06.14.11.27.17.41.26-.27.46-.56.57-.93.11-.39.07-.76.02-1.15l-.24.24h3.5c-.08-.08-.16-.16-.24-.24-.04.38-.08.73.01,1.1.09.34.27.65.51.9.21.22.55-.11.34-.34h0Z"/>
    </g>
    <g>
      <path d="M120.9,53.8l4.23-13.91h6.36l-6.92,19.5h-7.37l-6.92-19.5h6.39l4.23,13.91Z"/>
      <path d="M135.17,44.33c.76-1.51,1.79-2.68,3.09-3.49,1.3-.81,2.76-1.22,4.37-1.22,1.37,0,2.58.28,3.62.84,1.04.56,1.83,1.29,2.39,2.2v-2.76h5.97v19.5h-5.97v-2.76c-.58.91-1.39,1.64-2.43,2.2-1.04.56-2.24.84-3.62.84-1.58,0-3.03-.41-4.33-1.24-1.3-.83-2.34-2-3.09-3.53-.76-1.53-1.13-3.29-1.13-5.29s.38-3.76,1.13-5.28ZM147.4,46.11c-.83-.86-1.83-1.29-3.02-1.29s-2.2.42-3.02,1.28-1.24,2.02-1.24,3.51.41,2.67,1.24,3.55c.83.87,1.83,1.31,3.02,1.31s2.2-.43,3.02-1.29c.83-.86,1.24-2.04,1.24-3.53s-.41-2.67-1.24-3.53Z"/>
    </g>
  </g>
</svg>